<?xml version="1.0" encoding="UTF-8" standalone="no"?>
<!DOCTYPE svg PUBLIC "-//W3C//DTD SVG 1.1//EN" "http://www.w3.org/Graphics/SVG/1.1/DTD/svg11.dtd">
<svg width="100%" height="100%" viewBox="0 0 1700 1809" version="1.1" xmlns="http://www.w3.org/2000/svg" xmlns:xlink="http://www.w3.org/1999/xlink" xml:space="preserve" xmlns:serif="http://www.serif.com/" style="fill-rule:evenodd;clip-rule:evenodd;stroke-linejoin:round;stroke-miterlimit:2;">
    <g transform="matrix(1,0,0,1,-150.45003,-262.500036)">
        <g transform="matrix(1,0,0,1.5625,-2433.333379,105.952417)">
            <g transform="matrix(1,0,0,0.64,3433.783409,678.857143)">
                <g transform="matrix(1,0,0,1,-850,-904.166667)">
                    <g transform="matrix(4.166667,0,0,4.166667,0,0)">
                        <path d="M203.442,3.751L0,0L0,15.402L203.442,11.651L407.053,7.9L407.053,7.501L203.442,3.751Z" style="fill:rgb(212,175,55);fill-rule:nonzero;"/>
                    </g>
                    <g transform="matrix(4.166667,0,0,4.166667,0,0)">
                        <path d="M203.442,19.83L0,16.357L0,31.202L203.442,27.73L407.053,24.282L407.053,23.29L203.442,19.83Z" style="fill:rgb(212,175,55);fill-rule:nonzero;"/>
                    </g>
                    <g transform="matrix(4.166667,0,0,4.166667,0,0)">
                        <path d="M203.442,35.909L0,32.727L0,47.003L203.442,43.809L407.053,40.663L407.053,39.066L203.442,35.909Z" style="fill:rgb(212,175,55);fill-rule:nonzero;"/>
                    </g>
                    <g transform="matrix(4.166667,0,0,4.166667,0,0)">
                        <path d="M203.442,51.988L0,49.084L0,62.804L203.442,59.888L407.053,57.033L407.053,54.843L203.442,51.988Z" style="fill:rgb(212,175,55);fill-rule:nonzero;"/>
                    </g>
                    <g transform="matrix(4.166667,0,0,4.166667,0,0)">
                        <path d="M203.442,68.067L0,65.442L0,78.605L203.442,75.967L407.053,73.415L407.053,70.632L203.442,68.067Z" style="fill:rgb(212,175,55);fill-rule:nonzero;"/>
                    </g>
                    <g transform="matrix(4.166667,0,0,4.166667,0,0)">
                        <path d="M203.442,84.146L0,81.799L0,94.406L203.442,92.046L407.053,89.784L407.053,86.421L203.442,84.146Z" style="fill:rgb(212,175,55);fill-rule:nonzero;"/>
                    </g>
                    <g transform="matrix(4.166667,0,0,4.166667,0,0)">
                        <path d="M203.442,100.225L0,98.168L0,110.194L203.442,108.125L407.053,106.165L407.053,102.197L203.442,100.225Z" style="fill:rgb(212,175,55);fill-rule:nonzero;"/>
                    </g>
                    <g transform="matrix(4.166667,0,0,4.166667,0,0)">
                        <path d="M203.442,116.304L0,114.526L0,125.995L203.442,124.216L407.053,122.535L407.053,117.986L203.442,116.304Z" style="fill:rgb(212,175,55);fill-rule:nonzero;"/>
                    </g>
                    <g transform="matrix(4.166667,0,0,4.166667,0,0)">
                        <path d="M203.442,132.395L0,130.895L0,141.796L203.442,140.296L407.053,138.904L407.053,133.774L203.442,132.395Z" style="fill:rgb(212,175,55);fill-rule:nonzero;"/>
                    </g>
                    <g transform="matrix(4.166667,0,0,4.166667,0,0)">
                        <path d="M203.442,148.462L0,147.252L0,157.585L203.442,156.375L407.053,155.274L407.053,149.563L203.442,148.462Z" style="fill:rgb(212,175,55);fill-rule:nonzero;"/>
                    </g>
                    <g transform="matrix(4.166667,0,0,4.166667,0,0)">
                        <path d="M203.442,164.553L0,163.622L0,173.373L203.442,172.454L407.053,171.643L407.053,165.352L203.442,164.553Z" style="fill:rgb(212,175,55);fill-rule:nonzero;"/>
                    </g>
                    <g transform="matrix(4.166667,0,0,4.166667,0,0)">
                        <path d="M203.442,180.632L0,179.991L0,189.174L203.442,188.533L407.053,188.013L407.053,181.141L203.442,180.632Z" style="fill:rgb(212,175,55);fill-rule:nonzero;"/>
                    </g>
                    <g transform="matrix(4.166667,0,0,4.166667,0,0)">
                        <path d="M203.442,196.712L0,196.349L0,204.963L203.442,204.612L407.053,204.382L407.053,196.929L203.442,196.712Z" style="fill:rgb(212,175,55);fill-rule:nonzero;"/>
                    </g>
                    <g transform="matrix(4.166667,0,0,4.166667,0,0)">
                        <path d="M203.442,212.791L0,212.718L0,220.752L203.442,220.691L407.053,220.752L407.053,212.718L203.442,212.791Z" style="fill:rgb(212,175,55);fill-rule:nonzero;"/>
                    </g>
                    <g transform="matrix(4.166667,0,0,4.166667,0,0)">
                        <path d="M203.442,228.87L0,229.087L0,236.552L203.442,236.77L407.053,237.121L407.053,228.507L203.442,228.87Z" style="fill:rgb(212,175,55);fill-rule:nonzero;"/>
                    </g>
                    <g transform="matrix(4.166667,0,0,4.166667,0,0)">
                        <path d="M203.442,244.949L0,245.457L0,252.341L203.442,252.849L407.053,253.49L407.053,244.307L203.442,244.949Z" style="fill:rgb(212,175,55);fill-rule:nonzero;"/>
                    </g>
                    <g transform="matrix(4.166667,0,0,4.166667,0,0)">
                        <path d="M203.442,261.028L0,261.826L0,268.13L203.442,268.928L407.053,269.86L407.053,260.096L203.442,261.028Z" style="fill:rgb(212,175,55);fill-rule:nonzero;"/>
                    </g>
                    <g transform="matrix(4.166667,0,0,4.166667,0,0)">
                        <path d="M203.442,277.107L0,278.196L0,283.918L203.442,285.007L407.053,286.217L407.053,275.885L203.442,277.107Z" style="fill:rgb(212,175,55);fill-rule:nonzero;"/>
                    </g>
                    <g transform="matrix(4.166667,0,0,4.166667,0,0)">
                        <path d="M203.442,293.186L0,294.565L0,299.707L203.442,301.086L407.053,302.587L407.053,291.686L203.442,293.186Z" style="fill:rgb(212,175,55);fill-rule:nonzero;"/>
                    </g>
                    <g transform="matrix(4.166667,0,0,4.166667,0,0)">
                        <path d="M203.442,309.265L0,310.935L0,315.484L203.442,317.165L407.053,318.956L407.053,307.486L203.442,309.265Z" style="fill:rgb(212,175,55);fill-rule:nonzero;"/>
                    </g>
                    <g transform="matrix(4.166667,0,0,4.166667,0,0)">
                        <path d="M203.442,325.344L0,327.316L0,331.272L203.442,333.244L407.053,335.313L407.053,323.275L203.442,325.344Z" style="fill:rgb(212,175,55);fill-rule:nonzero;"/>
                    </g>
                    <g transform="matrix(4.166667,0,0,4.166667,0,0)">
                        <path d="M203.442,341.423L0,343.685L0,347.061L203.442,349.323L407.053,351.67L407.053,339.076L203.442,341.423Z" style="fill:rgb(212,175,55);fill-rule:nonzero;"/>
                    </g>
                    <g transform="matrix(4.166667,0,0,4.166667,0,0)">
                        <path d="M203.442,357.502L0,360.067L0,362.85L203.442,365.403L407.053,368.04L407.053,354.865L203.442,357.502Z" style="fill:rgb(212,175,55);fill-rule:nonzero;"/>
                    </g>
                    <g transform="matrix(4.166667,0,0,4.166667,0,0)">
                        <path d="M203.442,373.581L0,376.437L0,378.626L203.442,381.482L407.053,384.398L407.053,370.666L203.442,373.581Z" style="fill:rgb(212,175,55);fill-rule:nonzero;"/>
                    </g>
                    <g transform="matrix(4.166667,0,0,4.166667,0,0)">
                        <path d="M203.442,389.66L0,392.818L0,394.415L203.442,397.561L407.053,400.755L407.053,386.466L203.442,389.66Z" style="fill:rgb(212,175,55);fill-rule:nonzero;"/>
                    </g>
                    <g transform="matrix(4.166667,0,0,4.166667,0,0)">
                        <path d="M203.442,405.739L0,409.187L0,410.191L203.442,413.64L407.053,417.112L407.053,402.267L203.442,405.739Z" style="fill:rgb(212,175,55);fill-rule:nonzero;"/>
                    </g>
                    <g transform="matrix(4.166667,0,0,4.166667,0,0)">
                        <path d="M203.442,421.818L0,425.569L0,425.98L203.442,429.719L407.053,433.481L407.053,418.068L203.442,421.818Z" style="fill:rgb(212,175,55);fill-rule:nonzero;"/>
                    </g>
                </g>
            </g>
        </g>
    </g>
</svg>
