<?xml version="1.0" encoding="UTF-8" standalone="no"?>
<!DOCTYPE svg PUBLIC "-//W3C//DTD SVG 1.1//EN" "http://www.w3.org/Graphics/SVG/1.1/DTD/svg11.dtd">
<svg width="100%" height="100%" viewBox="0 0 1051 452" version="1.1" xmlns="http://www.w3.org/2000/svg" xmlns:xlink="http://www.w3.org/1999/xlink" xml:space="preserve" xmlns:serif="http://www.serif.com/" style="fill-rule:evenodd;clip-rule:evenodd;">
    <g transform="matrix(1,0,0,1,-102.588676,-139.322944)">
        <g>
            <path id="_2" serif:id="2" d="M1137.304,501.707C1130.335,499.663 1128.509,497.197 1128.503,489.824C1128.5,485.904 1130.36,479.11 1132.176,476.406C1135.12,472.024 1138.274,472.619 1144.273,478.691C1148.611,483.082 1151.625,488.115 1150.557,489.186C1150.251,489.493 1150,491.063 1150,492.674C1150,495.497 1148.763,499.044 1147.507,499.822C1147.228,499.995 1147,500.567 1147,501.093C1147,503.397 1143.763,503.602 1137.304,501.707" style="fill:rgb(212,175,55);fill-rule:nonzero;stroke:rgb(212,175,55);stroke-width:1px;"/>
            <g>
                <path id="_96" serif:id="96" d="M627,353.633C627,352.989 628.995,351.939 629.417,352.362C629.6,352.545 629.312,353.015 628.779,353.406C627.649,354.234 627,354.317 627,353.633" style="fill:rgb(212,175,55);fill-rule:nonzero;stroke:rgb(212,175,55);stroke-width:1px;"/>
                <path id="_961" serif:id="96" d="M782.115,413.711C782.425,412.778 784.94,411.07 785.367,411.502C785.578,411.715 785.075,412.432 784.25,413.096C782.615,414.411 781.804,414.645 782.115,413.711" style="fill:rgb(212,175,55);fill-rule:nonzero;stroke:rgb(212,175,55);stroke-width:1px;"/>
                <path id="_85" serif:id="85" d="M163.994,587.676C161.242,587.081 157.5,585.152 157.5,584.328C157.5,583.572 153.776,578.827 153.184,578.826C152.284,578.825 151.949,576.999 151.648,570.432C151.366,564.302 152.118,558.835 153.036,560.327C153.529,561.125 155,560.04 155,558.879C155,557.944 159.292,549.307 160.337,548.14C160.76,547.668 160.958,546.881 160.789,546.347C160.575,545.67 161.095,544.755 162.594,543.176C163.752,541.955 164.969,541.018 165.297,541.092C165.625,541.166 166.512,540.489 167.267,539.587C168.022,538.685 172.747,533.658 177.768,528.417C187.978,517.758 191.5,513.661 191.5,512.441C191.5,511.986 191.717,511.614 191.982,511.614C192.248,511.614 193.234,510.937 194.173,510.109C195.113,509.282 196.099,508.604 196.363,508.604C196.629,508.604 197.252,508.153 197.75,507.601C198.248,507.05 199.04,506.598 199.51,506.598C200.588,506.598 203,504.727 203,503.891C203,503.114 205.1,501.081 205.902,501.081C206.226,501.081 207.492,499.08 208.715,496.635C210.243,493.585 211.656,491.557 213.22,490.176C214.474,489.069 215.5,487.897 215.5,487.571C215.5,487.244 215.744,487.129 216.043,487.314C216.804,487.786 219.893,484.652 220.244,483.053C220.732,480.825 222.362,478.61 224.52,477.243C225.807,476.428 226.861,475.248 227.336,474.09C229.138,469.699 229.619,468.95 230.46,469.218C231.038,469.402 231.975,468.626 233.522,466.685C234.747,465.146 236.626,462.884 237.698,461.658C238.769,460.432 239.511,459.293 239.345,459.126C239.179,458.96 239.519,457.892 240.101,456.754C240.682,455.616 241.254,454.966 241.37,455.311C241.687,456.245 242.851,456.07 243.617,454.974C243.987,454.444 245.81,452.385 247.667,450.399C249.524,448.414 250.955,446.534 250.847,446.222C250.74,445.911 251.194,445.292 251.857,444.847C252.521,444.403 253.902,442.92 254.927,441.552C255.951,440.184 257.042,439.149 257.351,439.253C257.66,439.356 258.325,438.83 258.831,438.085C259.337,437.341 261.002,435.353 262.532,433.67C268.259,427.369 271.599,422.799 271.314,421.658C271.111,420.849 271.68,419.882 273.568,417.818C274.957,416.301 277.135,413.818 278.407,412.301C283.08,406.73 285.269,404.549 286.055,404.681C286.497,404.755 287.245,404.226 287.716,403.505C288.187,402.784 290.356,400.164 292.536,397.683C294.716,395.202 296.5,392.955 296.5,392.688C296.5,392.422 297.297,391.404 298.272,390.427C299.446,389.248 299.949,388.351 299.763,387.764C299.317,386.353 304.438,380.199 306.058,380.199C307.143,380.199 313.649,372.426 313.753,371.005C313.796,370.421 314.263,369.824 314.791,369.679C315.921,369.369 328.447,356.382 332.369,351.456C333.894,349.54 334.967,347.734 334.816,347.338C334.656,346.919 335.351,345.942 336.523,344.935C337.611,344.001 338.5,343.071 338.5,342.868C338.5,342.007 342.182,338.051 342.5,338.569C342.703,338.898 344.543,337.265 347.046,334.538C349.358,332.017 354.292,326.757 358.01,322.85C361.728,318.943 368.214,311.683 372.425,306.718C376.635,301.752 382.312,295.361 385.04,292.516C387.768,289.671 390,287.105 390,286.814C390,286.523 390.675,285.514 391.5,284.571C393.199,282.63 393.38,281.889 392.156,281.889C391.492,281.889 391.611,281.577 392.714,280.422C393.485,279.615 394.383,279.058 394.711,279.185C395.708,279.569 401.582,272.76 401.454,271.368C401.283,269.488 401.493,269.148 402.218,270.132C402.902,271.059 403.062,270.963 405.593,268.103C407.055,266.452 409.365,264.082 410.728,262.836C412.091,261.591 413.681,260.121 414.26,259.569C414.84,259.017 416.087,258.159 417.032,257.663C421.044,255.554 421.5,255.208 421.5,254.275C421.5,253.738 421.728,253.299 422.007,253.299C422.796,253.299 424.496,250.187 424.498,248.74C424.5,247.87 425.161,246.828 426.5,245.585C427.6,244.563 428.5,243.53 428.5,243.288C428.5,243.046 429.313,242.343 430.308,241.727C431.301,241.111 432.409,239.908 432.769,239.053C433.13,238.198 434.359,236.596 435.501,235.493C437.592,233.472 440.012,230.221 440.633,228.596C440.817,228.114 441.284,227.718 441.668,227.718C442.433,227.718 445,224.131 445,223.06C445,222.693 445.33,221.955 445.734,221.419C446.635,220.224 446.71,218.844 445.889,218.569C444.967,218.261 446.332,215.186 449.663,210.064C451.224,207.665 452.5,205.55 452.5,205.365C452.5,205.068 454.254,202.82 456.192,200.633C456.559,200.219 457.721,198.526 458.772,196.871C459.825,195.216 462.074,191.717 463.772,189.097C467.675,183.07 468.06,182.316 467.71,181.399C467.335,180.419 468.894,178.052 469.707,178.366C470.601,178.709 471.666,177.25 471.365,176.096C471.202,175.471 471.615,174.611 472.527,173.675C474.38,171.774 475.041,167.68 473.801,165.782C472.784,164.225 472.672,164.225 469.273,165.784C467.757,166.48 465.782,167.193 464.884,167.37C463.985,167.547 461.45,168.686 459.25,169.902C457.05,171.119 452.55,173.451 449.25,175.085C444.039,177.664 425.847,189.647 408.939,201.636C407.188,202.877 404.575,204.57 403.131,205.398C400.181,207.089 391.287,213.789 385.548,218.642C383.459,220.409 380.577,222.611 379.144,223.536C375.92,225.616 366.279,232.856 364.25,234.72C363.425,235.479 361.485,236.925 359.938,237.935C358.39,238.945 355.24,241.415 352.938,243.425C350.635,245.436 347.962,247.63 347,248.301C346.038,248.972 343.08,251.443 340.428,253.793C337.776,256.142 334.401,259.12 332.928,260.411C331.455,261.702 329.978,263.035 329.646,263.374C329.224,263.805 328.848,263.835 328.396,263.473C327.914,263.086 326.606,263.937 323.25,266.821C320.775,268.948 318.75,271.007 318.75,271.398C318.75,271.789 317.818,272.898 316.68,273.864C311.58,278.191 304.886,284.028 299.909,288.489C296.341,291.687 294.207,293.26 293.627,293.118C292.671,292.884 285.5,299.069 285.5,300.129C285.5,300.76 280.988,305.307 278,307.686C274.748,310.275 261.335,322.711 251.452,332.298C246.049,337.54 240.261,343.07 238.59,344.587C236.92,346.104 232.375,350.506 228.492,354.368C222.613,360.213 221.489,361.138 221.783,359.885L222.136,358.381L220.541,359.88C219.559,360.803 219.034,361.716 219.174,362.255C219.332,362.86 218.679,363.665 217.067,364.851C215.783,365.797 214.312,367.036 213.799,367.605C213.286,368.174 212.659,368.51 212.404,368.352C211.345,367.696 204.276,374.209 204.237,375.877C204.214,376.879 203.46,377.691 202.555,377.691C201.635,377.691 192,386.71 189.638,390.206C189.975,391.496 187.28,394.197 186.831,393.021C186.431,391.977 185.547,392.026 185.143,393.115C184.756,394.157 159.01,419.994 149.78,428.602C146.231,431.913 142.241,435.634 140.913,436.871C139.586,438.109 138.5,439.493 138.5,439.947C138.5,441.534 129.885,446.468 123.282,448.662C114.853,451.463 111.673,451.315 108.5,447.971C107.062,446.457 106.735,445.712 106.665,443.802C106.618,442.522 106.347,441.04 106.063,440.508C105.701,439.83 105.721,438.972 106.125,437.65C106.639,435.97 106.596,435.68 105.734,435.048C104.831,434.386 104.817,434.243 105.543,432.974C106.088,432.021 106.666,431.651 107.469,431.741C108.101,431.813 109.434,431.363 110.433,430.742C113.246,428.993 115.053,428.002 117.5,426.869C120.698,425.387 123.549,423.814 125,422.731C125.688,422.218 127.938,420.553 130,419.031C132.062,417.51 137.463,412.964 142,408.929C149.47,402.288 154.444,397.646 171.714,381.197C174.759,378.297 181.065,372.429 185.727,368.156C199.445,355.583 201.042,353.993 200.89,353.046C200.704,351.882 206.539,346.234 207.863,346.296C208.94,346.347 215.637,340.767 223.761,333.051C230.008,327.116 236.005,321.698 243.75,314.991C249.149,310.315 262.818,297.71 266.808,293.727C268.39,292.149 271.918,289.149 286.204,277.236C300.402,265.396 301.673,264.299 307.5,258.866C310.663,255.917 315.5,251.721 318.25,249.541C321,247.361 326.175,243.075 329.75,240.015C333.325,236.955 338.017,233.113 340.178,231.477C342.339,229.84 345.826,227.018 347.928,225.204C350.03,223.391 352.538,221.363 353.5,220.696C354.462,220.029 357.275,217.878 359.75,215.916C369.014,208.57 374.414,204.347 376.55,202.774C377.76,201.883 380.325,199.899 382.25,198.364C384.175,196.83 387.325,194.531 389.25,193.254C391.175,191.978 395.225,189.087 398.25,186.83C403.192,183.144 407.363,180.259 408.753,179.566C409.031,179.429 411.955,177.532 415.253,175.352C418.551,173.172 423.837,169.695 427,167.625C430.163,165.555 433.988,163.031 435.5,162.017C437.012,161.002 439.488,159.467 441,158.605C442.512,157.743 444.805,156.042 446.096,154.825C448.481,152.577 454.661,149.202 455.471,149.704C456.226,150.173 458.5,149.041 458.5,148.196C458.5,147.648 458.789,147.49 459.423,147.692C459.952,147.86 461.78,147.313 463.697,146.413C467.039,144.844 468.311,144.431 473.5,143.222C475.021,142.868 476.194,142.327 476.125,142.013C475.875,140.88 480.882,141.371 483.642,142.75C488.001,144.93 493.014,148.543 494.308,150.438C495.671,152.436 496.925,156.33 497.067,159.002C497.222,161.953 496.521,164.906 495.681,164.834C495.238,164.796 494.668,165.521 494.291,166.6C493.94,167.607 492.943,169.691 492.077,171.232C491.209,172.773 490.5,174.494 490.5,175.058C490.5,176.636 477.957,194.714 469.93,204.706C467.991,207.118 466.562,208.467 466.055,208.362C464.882,208.122 462.229,211.489 462.928,212.332C463.747,213.323 459.988,218.41 458.424,218.427C457.464,218.437 457.243,218.713 457.212,219.944C457.191,220.771 456.996,221.85 456.778,222.341C456.405,223.181 456.344,223.183 455.755,222.374C455.19,221.6 455.005,221.71 453.879,223.488C453.192,224.573 452.151,225.891 451.565,226.417C450.979,226.942 450.5,227.588 450.5,227.853C450.5,228.371 449.807,229.269 444.481,235.65C442.566,237.944 441,240.055 441,240.343C441,240.63 440.44,241.533 439.755,242.35C437.879,244.587 434.918,249.853 435.168,250.508C435.454,251.253 434.505,252.513 433.323,252.958C432.731,253.181 432.507,253.597 432.703,254.109C432.902,254.63 432.419,255.462 431.322,256.487C430.394,257.354 429.037,259.026 428.308,260.201C427.578,261.377 425.916,263.561 424.615,265.056C423.315,266.55 421.125,269.151 419.75,270.835C418.375,272.52 416.082,275.229 414.653,276.856C413.224,278.482 411.568,280.788 410.974,281.98C410.378,283.172 409.055,285.162 408.033,286.403C407.01,287.645 405.339,289.975 404.32,291.581C402.012,295.216 399.348,298.61 394.996,303.457C393.139,305.526 389.736,309.32 387.434,311.888C385.132,314.455 381.788,318.436 380,320.732C378.212,323.029 375.4,326.606 373.75,328.681C372.1,330.756 369.886,333.69 368.83,335.201C367.44,337.191 366.662,337.884 366.012,337.713C365.466,337.57 364.451,338.089 363.432,339.029C361.918,340.424 361.832,340.644 362.57,341.219C363.31,341.795 363.183,342.131 361.308,344.602C360.162,346.111 356.305,350.326 352.738,353.969C344.724,362.15 340.217,367.022 339.147,368.663C338.696,369.353 337.411,370.943 336.289,372.198C335.168,373.452 331.887,377.28 329,380.703C326.113,384.126 322.385,388.404 320.715,390.209C317.538,393.645 312.546,399.778 310.49,402.771C309.827,403.736 307.702,406.235 305.767,408.324C303.832,410.413 300.337,414.337 298,417.045C295.663,419.752 292.106,423.798 290.096,426.037C288.087,428.276 285.162,431.891 283.596,434.072C278.577,441.064 270.512,450.343 269.415,450.387C268.204,450.436 263.402,456 263.672,457.041C263.813,457.587 262.608,459.299 260.315,461.806C258.347,463.959 255.727,467.058 254.494,468.695C253.26,470.331 250.225,473.841 247.75,476.495C238.088,486.855 226.007,500.86 226.002,501.708C226.001,501.914 225.697,502.084 225.327,502.084C224.331,502.084 222.934,503.834 223.256,504.678C223.655,505.719 219.662,510.591 207.464,523.949C203.457,528.337 199.191,533.282 197.986,534.938C196.78,536.593 194.868,538.963 193.736,540.204C192.604,541.446 189.894,544.608 187.714,547.231C178.783,557.978 177.556,560.036 178.539,562.627C178.999,563.84 179.183,563.9 181.653,563.644C184.852,563.313 191.6,560.683 196.569,557.83C199.929,555.901 206.957,551.052 216.368,544.17C218.357,542.715 220.387,541.494 220.877,541.458C223.546,541.261 239.335,528.765 238.774,527.295C238.64,526.946 238.698,526.661 238.901,526.661C239.105,526.661 240.392,525.606 241.761,524.316C243.13,523.027 245.321,521.145 246.629,520.135C247.936,519.124 250.974,516.4 253.379,514.081C255.783,511.762 259.375,508.552 261.362,506.947C263.349,505.342 266.033,502.787 267.327,501.268C268.62,499.749 270.341,498.162 271.15,497.743C271.959,497.323 278.163,491.396 284.935,484.571C302.563,466.809 309.323,460.5 310.418,460.787C311.717,461.128 312.817,459.684 312.005,458.703C311.345,457.905 311.603,457.701 313.75,457.328C314.309,457.23 314.722,456.791 314.687,456.332C314.651,455.874 321.152,448.908 329.342,440.627C346.654,423.123 354.312,415.812 355.332,415.812C356.445,415.812 361.072,411.707 360.789,410.969C360.543,410.325 361.312,409.58 362.25,409.555C363.306,409.527 365.5,407.627 365.5,406.741C365.5,406.108 365.747,405.906 366.274,406.11C367.148,406.446 375.296,398.933 375.183,397.896C375.147,397.56 376.286,396.38 377.716,395.273C380.772,392.908 383.32,389.873 383.774,388.055C384.188,386.399 384.771,385.943 387.358,385.249C388.967,384.817 389.696,384.828 390.438,385.293C391.268,385.813 391.799,385.641 394.08,384.113C395.548,383.13 398.678,381.063 401.035,379.521C405.483,376.609 406.992,375.286 406.839,374.431C406.791,374.155 407.312,373.92 408,373.908C408.688,373.896 411.837,372.19 415,370.116C418.163,368.043 422.518,365.513 424.679,364.494C426.84,363.475 429.265,362.087 430.07,361.408C431.911,359.854 434.611,359.087 436.385,359.614C439.036,360.401 445.269,363.503 446.784,364.789C449.019,366.685 451.897,371.64 452.556,374.725C453.281,378.115 452.872,383.792 451.53,388.977C450.584,392.634 444.852,407.848 443.972,409.04C443.769,409.316 443.264,410.67 442.851,412.05C441.378,416.968 433.78,436.509 430.724,443.24C430.075,444.67 428.991,447.492 428.316,449.51C427.641,451.528 426.286,455.098 425.303,457.443C424.322,459.788 423.514,461.983 423.509,462.321C423.504,462.659 422.825,464.414 422,466.221C421.175,468.028 420.5,469.628 420.5,469.778C420.5,469.927 419.504,472.122 418.286,474.656C417.069,477.189 415.911,479.939 415.714,480.767C415.516,481.594 414.974,482.836 414.51,483.525C414.046,484.215 413.276,485.795 412.8,487.036C412.324,488.278 411.428,490.084 410.809,491.049C408.872,494.071 406.966,499.426 405.979,504.622C404.901,510.297 406.695,512.142 411.544,510.347C412.757,509.898 415.212,509.004 417,508.36C418.788,507.716 423.062,505.677 426.5,503.829C429.938,501.981 433.425,500.111 434.25,499.674C435.075,499.237 438.196,497.174 441.185,495.09C444.175,493.005 447.663,490.735 448.935,490.044C450.209,489.354 451.933,488.301 452.768,487.704C456.498,485.039 463.792,482.374 465.098,483.2C466.329,483.979 469.688,482.672 472.912,480.16C474.432,478.976 475.887,478.008 476.146,478.008C476.404,478.008 476.498,477.551 476.352,476.993C476.148,476.211 476.45,475.824 477.669,475.304C480.412,474.134 490,464.164 487.511,463.144C487.522,462.706 490.158,460.761 494.75,457.801C496.125,456.914 498.262,455.142 499.5,453.863C500.738,452.584 502.495,451.16 503.405,450.7C504.521,450.135 505.366,449.146 506,447.662C506.558,446.356 507.511,445.158 508.345,444.715C509.118,444.304 510.965,442.712 512.45,441.176C514.559,438.996 515.298,438.508 515.823,438.945C516.348,439.383 517.236,438.809 519.873,436.334C521.731,434.59 523.251,432.814 523.253,432.387C524.229,432.282 526.53,429.425 525.977,429.354C526.232,429.354 527.727,428.226 529.298,426.847C531.292,425.096 532.586,424.339 533.578,424.339C534.436,424.339 535,424.606 535,425.013C535,426.196 536.833,427.432 538.331,427.26L539.75,427.097L539.578,423.371L539.408,419.644L543.155,416.074C545.216,414.111 547.881,411.851 549.077,411.053C550.272,410.255 552.375,408.543 553.75,407.248C557.298,403.907 561.003,401.208 561.564,401.556C562.146,401.917 566.497,398.43 566.506,397.596C566.514,396.843 576.237,390.231 577.337,390.231C578.549,390.231 581.607,387.724 581.317,386.966C581.18,386.607 581.505,385.916 582.038,385.431C582.861,384.684 583.188,384.645 584.186,385.181C585.14,385.693 585.567,385.685 586.452,385.137C587.077,384.751 587.453,384.11 587.332,383.635C587.205,383.14 587.698,382.378 588.56,381.739C589.722,380.878 590,380.819 590,381.438C590,382.787 591.359,382.267 593.586,380.067C594.776,378.89 596.375,377.651 597.139,377.312C597.903,376.974 598.657,376.361 598.813,375.95C598.971,375.54 599.865,374.73 600.799,374.15C602.591,373.039 603.072,371.672 601.673,371.672C600.12,371.672 602.466,369.73 605.971,368.113C607.774,367.281 609.884,366.252 610.658,365.828C611.943,365.123 612.149,365.131 613.017,365.92C613.756,366.59 614.589,366.732 616.745,366.552C619.952,366.285 621.867,364.819 623.452,361.42C625.818,356.344 626.092,355.584 625.821,354.873C625.559,354.191 626.064,353.883 627.145,354.064C628.004,354.208 629.563,352.999 629.324,352.375C629.165,351.958 630.635,350.721 633.304,349.028C635.632,347.551 639.545,345.044 641.999,343.458C644.452,341.872 646.869,340.574 647.369,340.574C648.513,340.574 650.498,339.208 650.506,338.414C650.511,337.896 653.557,335.559 654.226,335.559C654.358,335.559 655.863,334.653 657.57,333.546C659.542,332.268 661.008,331.64 661.59,331.825C662.127,331.996 663.048,331.688 663.82,331.079C664.543,330.508 665.351,330.041 665.615,330.041C665.879,330.041 666.785,329.549 667.628,328.947C668.47,328.345 672.442,326.208 676.455,324.198C680.467,322.188 684.713,319.996 685.891,319.328C687.068,318.659 688.475,317.996 689.016,317.854C689.557,317.712 690,317.252 690,316.832C690,315.005 704.99,310.504 711.123,310.489C714.544,310.48 715.419,310.686 718.623,312.246C726.231,315.95 732.173,321.1 734.385,325.91C736.565,330.647 736.162,338.736 733.38,346.092C732.806,347.609 732.186,349.076 732.003,349.352C731.819,349.628 731.066,351.546 730.329,353.616C729.592,355.685 727.55,359.906 725.792,362.997C724.033,366.088 721.515,371.392 720.197,374.784C717.913,380.659 704.7,407.815 702.065,412.05C701.379,413.153 700.106,415.185 699.237,416.564C698.369,417.943 696.015,422.208 694.008,426.04C692,429.873 689.499,434.307 688.448,435.894C687.398,437.481 685.505,441.117 684.243,443.973C682.981,446.83 681.473,449.957 680.893,450.922C678.239,455.334 671.831,468.471 670.183,472.88C668.232,478.102 667.758,482.275 668.953,483.719C670.742,485.882 679.025,483.586 690.986,477.611C695.24,475.485 699.965,472.986 701.486,472.056C705.309,469.718 707.127,468.66 711.75,466.083C718.765,462.172 724.841,457.858 742.468,444.276C745.064,442.276 748.439,439.506 749.968,438.121C751.498,436.735 753.763,435.06 755,434.399C759.051,432.234 763.134,429.243 765.966,426.365C769.023,423.26 772.091,420.801 773.101,420.646C773.457,420.592 774.356,419.935 775.097,419.187C775.942,418.334 776.745,417.944 777.251,418.139C778.113,418.471 780.558,416.288 781.159,414.652C781.342,414.151 781.721,413.883 782,414.056C782.753,414.523 785.61,412.309 785.301,411.499C785.02,410.765 786.833,409.498 787.864,409.707C788.767,409.891 791.037,408.263 790.883,407.542C790.612,406.276 797.361,401.437 801.518,400.263C801.735,400.263 804.427,398.57 807.5,396.501C810.573,394.432 813.251,392.739 813.452,392.739C814.177,392.739 818,389.5 818,388.887C818,388.542 818.435,388.026 818.967,387.741C820.018,387.176 826.434,385.677 828.577,385.495C830.337,385.346 837.111,381.963 838.306,380.638C839.286,379.551 846.397,375.813 850.75,374.097C852.125,373.555 853.782,372.544 854.432,371.851C855.324,370.899 855.922,370.667 856.866,370.905C857.693,371.113 858.432,370.935 859.043,370.38C859.613,369.862 860.394,369.653 861.082,369.833C861.696,369.994 862.495,369.878 862.86,369.575C863.909,368.701 871.301,369.393 874.75,370.688C879.42,372.442 882.543,374.805 887.635,380.438C891.755,384.996 892.47,386.064 893.41,389.064C895.322,395.16 895.533,397.584 895.429,412.301C895.32,427.836 895.626,430.567 898.268,437.649C900.236,442.929 901.564,444.882 906.133,449.221C909.351,452.276 911.403,453.728 915.033,455.519C921.379,458.65 926.205,460.315 931.681,461.263C934.192,461.698 937.149,462.355 938.249,462.722C947.182,465.706 948.838,465.97 958.636,465.97C968.155,465.97 969.525,466.19 970.859,467.933C971.905,469.299 971.562,470.89 969.853,472.599C966.552,475.9 960.649,478.058 948,480.587C942.354,481.715 926.03,480.055 917.385,477.472C914.133,476.501 908.038,473.269 903.114,469.905C898.635,466.846 895.434,463.981 890.47,458.588C886.373,454.138 885.056,452.291 883.033,448.164C878.739,439.4 877.512,431.09 877.146,408.288C876.845,389.436 877.27,390.471 870,390.892C867.061,391.062 863.668,391.651 861.098,392.436C855.001,394.3 844.328,398.674 841.079,400.641C839.523,401.583 835.663,403.738 832.5,405.429C829.337,407.12 824.832,409.891 822.488,411.585C820.144,413.279 817.444,415.064 816.488,415.55C815.532,416.037 813.175,417.547 811.25,418.905C809.325,420.264 805.725,422.679 803.25,424.271C798.202,427.519 789.068,434.706 785.19,438.484C782.447,441.157 778.874,443.861 774.578,446.514C773.109,447.421 770.409,449.477 768.578,451.083C764.713,454.474 759.931,457.443 758.335,457.443C756.835,457.443 755,458.797 755,459.905C755,461.007 750.083,465.664 748.886,465.696C747.436,465.735 742.404,470.062 742.662,471.05C742.833,471.71 740.904,473.229 734.568,477.425C729.993,480.454 724.675,483.781 722.75,484.817C720.825,485.854 717.589,487.849 715.559,489.251C711.46,492.083 711.193,492.27 706.304,495.731C700.856,499.587 689,505.331 682.75,507.142C678.139,508.478 676.361,508.741 671.75,508.776C666.475,508.817 666.117,508.75 663,507.159C661.212,506.247 658.622,504.633 657.245,503.574C654.061,501.124 649.979,496.185 649.149,493.779C648.261,491.207 647.766,477.586 648.399,473.136C648.789,470.386 649.637,468.04 651.931,463.355C653.591,459.965 655.106,456.515 655.299,455.688C655.885,453.178 668.696,428.326 673.529,420.326C674.279,419.085 675.746,416.489 676.788,414.558C677.831,412.627 679.312,410.031 680.079,408.79C680.846,407.548 682.745,404.05 684.298,401.015C688.176,393.439 693.136,385.355 698.269,378.244C698.947,377.307 699.5,376.052 699.5,375.455C699.5,374.858 700.006,373.824 700.625,373.156C701.244,372.489 701.77,371.713 701.795,371.431C701.939,369.823 702.7,368.161 703.292,368.161C704.067,368.161 705.5,365.658 705.501,364.299C705.501,363.803 706.808,360.801 708.404,357.628C715.046,344.431 717.928,334.837 715.734,333.227C714.677,332.452 711.829,332.341 709.699,332.992C708.903,333.236 707.237,333.733 706,334.096C704.763,334.459 702.285,335.483 700.496,336.371C698.707,337.259 696.006,338.473 694.496,339.069C689.577,341.01 669.376,351.398 664.25,354.622C661.5,356.352 658.125,358.716 656.75,359.877C655.375,361.037 653.8,362.227 653.25,362.52C652.7,362.814 650.722,364.186 648.856,365.571C646.99,366.955 643.84,368.703 641.856,369.455C637.385,371.149 633.725,373.528 629.505,377.48C627.715,379.157 623.888,382.305 621,384.476C618.112,386.648 613.5,390.26 610.75,392.503C608,394.745 604.737,397.178 603.5,397.91C602.263,398.641 599.871,400.316 598.186,401.632C591.558,406.806 585.179,411.625 583.767,412.524C582.951,413.044 580.701,414.75 578.767,416.315C576.832,417.88 574.172,419.776 572.855,420.529C571.538,421.281 569.691,422.575 568.75,423.403C567.808,424.232 565.849,425.515 564.394,426.254C562.317,427.31 561.717,427.887 561.596,428.942C561.497,429.792 560.764,430.797 559.596,431.684C558.581,432.454 555.249,435.235 552.191,437.865C549.133,440.495 544.996,443.888 542.999,445.405C536.332,450.468 530.394,455.163 527.771,457.443C526.344,458.684 523.393,460.94 521.213,462.455C519.034,463.97 515.112,467.377 512.5,470.026C506.788,475.819 504.442,477.645 503.286,477.2C502.285,476.815 499.346,479.39 499.707,480.335C500.016,481.141 498.606,482.271 497.294,482.271C496.61,482.271 496.274,482.571 496.318,483.143C496.389,484.037 493.361,486.257 492.047,486.274C489.783,487.172 492.408,487.482 490.75,488.248C489.858,489.011 488.899,489.42 488.384,489.256C487.851,489.086 487.022,489.476 486.236,490.266C485.531,490.972 484.825,491.551 484.668,491.551C483.877,491.551 478.529,496.401 478.729,496.935C479.012,497.684 477.579,498.529 476.229,498.409C475.564,498.35 475.25,498.634 475.248,499.295C475.246,500.593 465.232,507.568 463.88,507.214C462.26,509.289 458.483,509.878 457.048,512.116C456.512,512.116 455.663,512.624 455.161,513.244C451.254,518.083 435.679,527.596 424.75,531.819C418.356,534.29 417.335,534.559 411.827,535.228C405.815,535.958 401.98,535.641 396.738,533.98C393.377,532.915 392.319,532.296 390.143,530.124C386.755,526.744 385.733,524.427 384.98,518.431C383.607,507.487 385.839,498.346 393.745,482.531C395.265,479.49 397.065,475.52 397.745,473.708C399.349,469.433 405.313,458.056 406.798,456.438C407.432,455.748 408.885,453.155 410.026,450.676C411.168,448.197 412.534,445.559 413.063,444.814C413.909,443.622 416.5,436.372 416.5,435.195C416.5,433.915 421.674,423.125 423.358,420.892C424.497,419.384 425.586,417.199 425.959,415.675C426.769,412.365 429.24,404.098 430.789,399.51C432.82,393.495 435.115,383.237 434.753,381.789C433.962,378.625 433.09,378.544 427.748,381.135C425.549,382.201 423.188,383.246 422.5,383.458C421.416,383.79 411.182,389.697 406,392.981C405.038,393.591 403.012,394.858 401.5,395.797C398.846,397.444 392.199,402.34 385.553,407.542C383.795,408.918 382.139,409.979 381.874,409.9C381.112,409.673 377.957,412.3 378.111,413.033C378.333,414.088 365.136,426.287 364.075,426.008C362.817,425.678 357.877,430.184 358.24,431.331C358.438,431.953 357.206,433.259 353.684,436.161C351.029,438.348 343.096,445.857 336.054,452.846C329.012,459.835 321,467.387 318.25,469.627C315.5,471.867 310.752,476.193 307.7,479.24C300.196,486.731 297.764,488.68 295.848,488.742C294.302,488.791 294.115,489.004 292.495,492.554C292.306,492.968 291.723,493.532 291.199,493.808C289.426,494.74 284.162,499.601 282.229,502.091C281.69,502.785 280.604,503.854 279.815,504.467C275.042,508.179 260.155,521.997 250.5,531.677C235.401,546.816 222.133,558.07 218.884,558.496C216.957,558.748 215.941,559.355 215.501,560.516C214.807,562.346 204.011,570.212 202.625,569.896C201.833,569.716 198.5,572.355 198.5,573.164C198.5,574.145 188.273,582.415 184.422,584.547C182.28,585.734 180.067,586.564 178.816,586.652C173.625,587.015 169.951,587.528 169.707,587.924C169.356,588.494 167.379,588.408 163.994,587.676" style="fill:rgb(212,175,55);fill-rule:nonzero;stroke:rgb(212,175,55);stroke-width:1px;"/>
                <path id="_962" serif:id="96" d="M408,373.764C408,373.475 409.37,372.379 411.046,371.327C412.721,370.276 416.04,368.164 418.421,366.635C423.247,363.534 431.252,359.977 429.813,361.571C429.354,362.08 427.127,363.36 424.865,364.417C422.601,365.473 418.227,367.993 415.144,370.017C409.065,374.006 408,374.565 408,373.764" style="fill:rgb(212,175,55);fill-rule:nonzero;stroke:rgb(212,175,55);stroke-width:1px;"/>
                <path id="_963" serif:id="96" d="M366.781,405.201C368.104,403.469 374.985,397.572 375.305,397.893C375.668,398.258 367.617,405.981 366.639,406.204C366.021,406.346 366.047,406.161 366.781,405.201" style="fill:rgb(212,175,55);fill-rule:nonzero;stroke:rgb(212,175,55);stroke-width:1px;"/>
                <path id="_964" serif:id="96" d="M263.5,456.772C263.5,455.798 268.68,450.228 269.363,450.469C269.69,450.584 268.752,452.135 267.193,454.057C264.502,457.376 263.5,458.113 263.5,456.772" style="fill:rgb(212,175,55);fill-rule:nonzero;stroke:rgb(212,175,55);stroke-width:1px;"/>
                <path id="_965" serif:id="96" d="M205.5,500.782C205.5,500.617 205.918,499.884 206.429,499.152C206.941,498.419 207.835,496.466 208.416,494.811C208.997,493.156 209.945,491.463 210.522,491.049C211.099,490.635 212.351,489.646 213.303,488.851C215.969,486.623 215.965,487.753 213.298,490.108C211.651,491.563 210.272,493.527 208.715,496.635C207.492,499.08 206.267,501.081 205.995,501.081C205.723,501.081 205.5,500.946 205.5,500.782" style="fill:rgb(212,175,55);fill-rule:nonzero;stroke:rgb(212,175,55);stroke-width:1px;"/>
                <path id="_966" serif:id="96" d="M241.5,455.398C241.5,454.583 249.582,445.907 250.34,445.907C251.56,445.907 251.017,446.817 247.645,450.422C245.799,452.396 243.987,454.444 243.617,454.974C242.894,456.009 241.5,456.288 241.5,455.398" style="fill:rgb(212,175,55);fill-rule:nonzero;stroke:rgb(212,175,55);stroke-width:1px;"/>
                <path id="_967" serif:id="96" d="M257,439.115C257,437.965 259.461,434.56 262.25,431.852C264.091,430.065 266.707,426.965 268.064,424.966C270.471,421.416 271.5,420.555 271.5,422.087C271.5,422.919 266.885,428.88 262.532,433.67C261.002,435.353 259.346,437.328 258.851,438.058C258.051,439.241 257,439.841 257,439.115" style="fill:rgb(212,175,55);fill-rule:nonzero;stroke:rgb(212,175,55);stroke-width:1px;"/>
                <path id="_968" serif:id="96" d="M285.5,404.345C285.5,403.798 288.433,400.03 292,395.996C293.512,394.285 295.76,391.619 296.994,390.073C298.236,388.515 299.429,387.451 299.666,387.688C300.188,388.213 298.707,390.586 297.429,391.272C296.918,391.547 296.5,392.086 296.5,392.472C296.5,392.857 294.716,395.202 292.536,397.683C290.356,400.164 288.192,402.775 287.728,403.485C286.925,404.715 285.5,405.264 285.5,404.345" style="fill:rgb(212,175,55);fill-rule:nonzero;stroke:rgb(212,175,55);stroke-width:1px;"/>
                <path id="_969" serif:id="96" d="M155.078,582.525C153.621,580.751 152.674,578.614 153.482,578.923C153.923,579.091 157.5,583.698 157.5,584.097C157.5,584.841 156.389,584.121 155.078,582.525" style="fill:rgb(212,175,55);fill-rule:nonzero;stroke:rgb(212,175,55);stroke-width:1px;"/>
                <path id="_9610" serif:id="96" d="M305.5,380.004C305.5,379.639 313.075,370.921 313.539,370.753C314.683,370.338 313.737,371.926 310.47,375.903C308.529,378.266 306.616,380.199 306.22,380.199C305.824,380.199 305.5,380.112 305.5,380.004" style="fill:rgb(212,175,55);fill-rule:nonzero;stroke:rgb(212,175,55);stroke-width:1px;"/>
                <path id="_9611" serif:id="96" d="M230.246,468.973C229.928,468.457 238.305,458.948 239.078,458.948C239.843,458.948 239.523,459.562 237.625,461.738C236.594,462.92 234.748,465.146 233.522,466.684C231.242,469.547 230.793,469.861 230.246,468.973" style="fill:rgb(212,175,55);fill-rule:nonzero;stroke:rgb(212,175,55);stroke-width:1px;"/>
                <path id="_9612" serif:id="96" d="M153.005,560.142C153.018,558.52 159.702,546.223 160.571,546.223C161.233,546.223 161.078,547.31 160.292,548.19C159.304,549.294 155,557.957 155,558.84C155,559.623 154.049,560.769 153.4,560.769C153.18,560.769 153.002,560.487 153.005,560.142" style="fill:rgb(212,175,55);fill-rule:nonzero;stroke:rgb(212,175,55);stroke-width:1px;"/>
                <path id="_9613" serif:id="96" d="M362.2,340.994C361.782,340.316 364.637,337.565 365.758,337.565C366.777,337.565 366.702,337.868 365.19,339.856C363.842,341.629 362.828,342.014 362.2,340.994" style="fill:rgb(212,175,55);fill-rule:nonzero;stroke:rgb(212,175,55);stroke-width:1px;"/>
                <path id="_9614" serif:id="96" d="M315.387,368.337C315.951,367.55 318.901,364.363 321.94,361.253C324.981,358.143 328.192,354.532 329.077,353.228C330.589,350.999 334.201,347.095 334.75,347.095C336.208,347.095 331.69,352.737 322.701,362.142C316.136,369.012 312.99,371.675 315.387,368.337" style="fill:rgb(212,175,55);fill-rule:nonzero;stroke:rgb(212,175,55);stroke-width:1px;"/>
                <path id="_9615" serif:id="96" d="M293,491.441C293,490.28 294.517,488.541 295.529,488.541C296.807,488.541 296.757,489.138 295.375,490.385C293.712,491.888 293,492.204 293,491.441" style="fill:rgb(212,175,55);fill-rule:nonzero;stroke:rgb(212,175,55);stroke-width:1px;"/>
                <path id="_9616" serif:id="96" d="M165,540.796C165,540.119 172.283,532.251 174.857,530.148C179.337,526.487 187.329,517.347 189.166,513.783C190.066,512.036 191.161,511.039 193.75,509.605L195.75,508.497L194.546,509.796C193.884,510.51 192.928,511.227 192.421,511.388C191.915,511.55 191.5,512.038 191.5,512.475C191.5,513.66 187.901,517.839 177.768,528.417C172.747,533.658 168.025,538.681 167.275,539.577C165.964,541.144 165,541.661 165,540.796" style="fill:rgb(212,175,55);fill-rule:nonzero;stroke:rgb(212,175,55);stroke-width:1px;"/>
                <path id="_9617" serif:id="96" d="M220.5,541.219C220.5,540.949 221.119,540.339 221.875,539.863C223.629,538.758 232.007,532.081 235.138,529.295C237.324,527.349 239,526.587 239,527.539C238.999,528.387 230.52,535.612 226.073,538.553C221.244,541.747 220.5,542.103 220.5,541.219" style="fill:rgb(212,175,55);fill-rule:nonzero;stroke:rgb(212,175,55);stroke-width:1px;"/>
                <path id="_9618" serif:id="96" d="M215.5,560.322C215.5,560.03 216.163,559.447 216.975,559.026C218.664,558.15 219,558.093 219,558.682C219,559.039 218.298,559.484 215.875,560.669C215.668,560.77 215.5,560.614 215.5,560.322" style="fill:rgb(212,175,55);fill-rule:nonzero;stroke:rgb(212,175,55);stroke-width:1px;"/>
                <path id="_9619" serif:id="96" d="M198.5,572.932C198.5,572.353 201.863,569.795 202.599,569.817C202.957,569.827 202.35,570.614 201.25,571.565C199.269,573.277 198.5,573.66 198.5,572.932" style="fill:rgb(212,175,55);fill-rule:nonzero;stroke:rgb(212,175,55);stroke-width:1px;"/>
                <path id="_9620" serif:id="96" d="M223,504.168C223,503.601 224.943,501.86 225.242,502.159C225.572,502.491 224.044,504.592 223.471,504.592C223.212,504.592 223,504.401 223,504.168" style="fill:rgb(212,175,55);fill-rule:nonzero;stroke:rgb(212,175,55);stroke-width:1px;"/>
                <path id="_9621" serif:id="96" d="M216,487.036C216,486.761 216.201,486.535 216.447,486.535C216.693,486.535 217.593,485.88 218.447,485.08C220.53,483.128 220.443,483.901 218.351,485.935C216.643,487.596 216,487.897 216,487.036" style="fill:rgb(212,175,55);fill-rule:nonzero;stroke:rgb(212,175,55);stroke-width:1px;"/>
                <path id="_9622" serif:id="96" d="M169.707,587.924C169.853,587.686 171.386,587.361 173.112,587.2C174.838,587.039 176.756,586.755 177.375,586.57C178.005,586.381 178.5,586.449 178.5,586.723C178.5,587.285 173.669,588.356 171.137,588.356C170.204,588.356 169.56,588.162 169.707,587.924" style="fill:rgb(212,175,55);fill-rule:nonzero;stroke:rgb(212,175,55);stroke-width:1px;"/>
                <path id="_9623" serif:id="96" d="M358,430.906C358,430.193 363.022,425.843 363.846,425.843C365.009,425.843 364.461,426.564 361.409,429.048C358.488,431.425 358,431.691 358,430.906" style="fill:rgb(212,175,55);fill-rule:nonzero;stroke:rgb(212,175,55);stroke-width:1px;"/>
                <path id="_9624" serif:id="96" d="M310,460.53C310,460.297 310.428,459.718 310.95,459.244C312.07,458.227 312.946,459.059 311.982,460.224C311.328,461.014 310,461.219 310,460.53" style="fill:rgb(212,175,55);fill-rule:nonzero;stroke:rgb(212,175,55);stroke-width:1px;"/>
                <path id="_9625" serif:id="96" d="M390.243,385.205C390.07,384.923 390.788,384.332 391.839,383.892C394.022,382.977 404.711,376.059 405.221,375.23C405.407,374.929 405.918,374.682 406.357,374.682C407.695,374.682 405.81,376.396 401.035,379.521C398.678,381.063 395.608,383.088 394.214,384.021C391.539,385.809 390.759,386.041 390.243,385.205" style="fill:rgb(212,175,55);fill-rule:nonzero;stroke:rgb(212,175,55);stroke-width:1px;"/>
                <path id="_9626" serif:id="96" d="M357.863,413.202C359.293,411.767 360.638,410.767 360.85,410.98C361.252,411.383 356.62,415.759 355.756,415.793C355.485,415.803 356.433,414.638 357.863,413.202" style="fill:rgb(212,175,55);fill-rule:nonzero;stroke:rgb(212,175,55);stroke-width:1px;"/>
                <path id="_9627" serif:id="96" d="M378,412.828C378,412.295 381.108,409.793 381.771,409.793C382.005,409.793 381.433,410.583 380.5,411.548C378.8,413.308 378,413.717 378,412.828" style="fill:rgb(212,175,55);fill-rule:nonzero;stroke:rgb(212,175,55);stroke-width:1px;"/>
                <path id="_9628" serif:id="96" d="M362,409.417C362,409.21 362.788,408.41 363.75,407.639C364.868,406.745 365.5,406.484 365.5,406.918C365.5,407.292 364.834,408.092 364.02,408.695C362.447,409.862 362,410.022 362,409.417" style="fill:rgb(212,175,55);fill-rule:nonzero;stroke:rgb(212,175,55);stroke-width:1px;"/>
                <path id="_9629" serif:id="96" d="M200.997,505.118C201.958,504.319 202.857,503.781 202.997,503.921C203.345,504.27 200.588,506.601 199.847,506.585C199.518,506.577 200.036,505.917 200.997,505.118" style="fill:rgb(212,175,55);fill-rule:nonzero;stroke:rgb(212,175,55);stroke-width:1px;"/>
                <path id="_9630" serif:id="96" d="M535.85,426.455C534.65,425.126 534.72,424.153 535.967,424.823C537.415,425.6 538.885,425.45 539.483,424.464C539.916,423.751 539.991,423.915 539.883,425.342C539.765,426.897 539.576,427.115 538.225,427.247C537.223,427.346 536.408,427.074 535.85,426.455" style="fill:rgb(212,175,55);fill-rule:nonzero;stroke:rgb(212,175,55);stroke-width:1px;"/>
                <path id="_9631" serif:id="96" d="M647.75,339.769C649.433,338.468 650.5,337.984 650.5,338.522C650.5,339.187 648.46,340.578 647.514,340.558C646.926,340.546 646.981,340.364 647.75,339.769" style="fill:rgb(212,175,55);fill-rule:nonzero;stroke:rgb(212,175,55);stroke-width:1px;"/>
                <path id="_9632" serif:id="96" d="M704.081,366.118C704.71,364.994 705.301,364.302 705.393,364.58C705.63,365.294 704.079,368.161 703.455,368.161C703.169,368.161 703.451,367.241 704.081,366.118" style="fill:rgb(212,175,55);fill-rule:nonzero;stroke:rgb(212,175,55);stroke-width:1px;"/>
                <path id="_9633" serif:id="96" d="M584.333,385.382C583.739,384.786 583.976,384.384 585.274,383.791C586.879,383.057 587.5,383.054 587.5,383.781C587.5,384.945 585.105,386.156 584.333,385.382" style="fill:rgb(212,175,55);fill-rule:nonzero;stroke:rgb(212,175,55);stroke-width:1px;"/>
                <path id="_9634" serif:id="96" d="M828.5,385.308C828.5,385.083 829.278,384.527 830.228,384.073C831.178,383.618 832.809,382.497 833.853,381.58C836.837,378.96 841.405,376.404 845.663,374.974C847.815,374.252 850.45,373.213 851.518,372.667C853.852,371.472 854.893,371.346 854.054,372.36C853.741,372.737 852.42,373.452 851.118,373.947C847.029,375.502 839.286,379.553 838.288,380.659C837.46,381.576 829.708,385.717 828.818,385.717C828.644,385.717 828.5,385.533 828.5,385.308" style="fill:rgb(212,175,55);fill-rule:nonzero;stroke:rgb(212,175,55);stroke-width:1px;"/>
                <path id="_9635" serif:id="96" d="M499.5,480.167C499.5,479.534 502.174,477.005 502.844,477.005C503.975,477.005 503.565,477.908 501.828,479.236C500.124,480.54 499.5,480.79 499.5,480.167" style="fill:rgb(212,175,55);fill-rule:nonzero;stroke:rgb(212,175,55);stroke-width:1px;"/>
                <path id="_9636" serif:id="96" d="M561.5,401.299C561.5,400.566 565.982,397.067 566.388,397.484C566.587,397.689 565.737,398.736 564.5,399.811C562.221,401.79 561.5,402.148 561.5,401.299" style="fill:rgb(212,175,55);fill-rule:nonzero;stroke:rgb(212,175,55);stroke-width:1px;"/>
                <path id="_9637" serif:id="96" d="M798.506,401.391C798.514,400.905 803.531,397.408 805.069,396.817C805.718,396.568 808.019,395.088 810.181,393.529C814.399,390.489 818,388.454 818,389.11C818,389.564 814.021,392.739 813.452,392.739C813.251,392.739 810.573,394.432 807.5,396.501C804.427,398.57 801.735,400.263 801.518,400.263C801.3,400.263 800.842,400.601 800.5,401.015C799.855,401.795 798.495,402.051 798.506,401.391" style="fill:rgb(212,175,55);fill-rule:nonzero;stroke:rgb(212,175,55);stroke-width:1px;"/>
                <path id="_9638" serif:id="96" d="M578.5,388.475C580.615,386.702 581.5,386.325 581.5,387.196C581.5,387.915 578.279,390.231 577.28,390.231C576.679,390.231 577.061,389.681 578.5,388.475" style="fill:rgb(212,175,55);fill-rule:nonzero;stroke:rgb(212,175,55);stroke-width:1px;"/>
                <path id="_9639" serif:id="96" d="M742.5,470.821C742.5,470.027 747.96,465.474 748.917,465.471C750.035,465.467 749.384,466.327 746.271,468.964C743.157,471.603 742.5,471.926 742.5,470.821" style="fill:rgb(212,175,55);fill-rule:nonzero;stroke:rgb(212,175,55);stroke-width:1px;"/>
                <path id="_9640" serif:id="96" d="M590,381.304C590,380.139 593.188,377.079 595.75,375.784C596.85,375.229 598.411,374.076 599.218,373.223C600.75,371.606 602.5,371.158 602.5,372.384C602.5,372.775 601.735,373.57 600.799,374.15C599.865,374.73 598.971,375.54 598.813,375.95C598.657,376.361 597.903,376.974 597.139,377.312C596.375,377.651 594.776,378.89 593.586,380.067C591.287,382.339 590,382.783 590,381.304" style="fill:rgb(212,175,55);fill-rule:nonzero;stroke:rgb(212,175,55);stroke-width:1px;"/>
                <path id="_9641" serif:id="96" d="M697.76,377.684C698.528,376.171 699.247,375.2 699.359,375.526C699.615,376.278 698.33,378.799 697.215,379.727C696.624,380.219 696.789,379.596 697.76,377.684" style="fill:rgb(212,175,55);fill-rule:nonzero;stroke:rgb(212,175,55);stroke-width:1px;"/>
                <path id="_9642" serif:id="96" d="M481.257,471.129C481.913,469.212 486.942,462.735 487.409,463.203C487.553,463.348 488.195,463.121 488.835,462.7C490.409,461.665 490.327,462.584 488.639,464.875C487.29,466.705 481.243,472.992 480.832,472.992C480.714,472.992 480.906,472.153 481.257,471.129" style="fill:rgb(212,175,55);fill-rule:nonzero;stroke:rgb(212,175,55);stroke-width:1px;"/>
                <path id="_9643" serif:id="96" d="M787.5,409.399C787.5,408.805 790.52,407.138 790.902,407.521C791.085,407.705 790.676,408.286 789.992,408.813C788.708,409.803 787.5,410.087 787.5,409.399" style="fill:rgb(212,175,55);fill-rule:nonzero;stroke:rgb(212,175,55);stroke-width:1px;"/>
                <path id="_9644" serif:id="96" d="M755,459.741C755,458.724 756.962,457.44 758.486,457.459C759.725,457.475 759.73,457.491 758.75,458.25C758.2,458.675 757.131,459.352 756.375,459.751C755.17,460.388 755,460.387 755,459.741" style="fill:rgb(212,175,55);fill-rule:nonzero;stroke:rgb(212,175,55);stroke-width:1px;"/>
                <path id="_9645" serif:id="96" d="M661.509,331.671C661.514,331.465 663.032,330.403 664.884,329.313C666.735,328.223 669.825,326.396 671.75,325.253C677.598,321.78 689.391,316.222 689.878,316.71C690.24,317.073 689.492,318.003 688.838,318.003C688.506,318.003 687.226,318.574 685.992,319.273C684.759,319.972 680.467,322.188 676.455,324.198C672.442,326.208 668.505,328.315 667.705,328.881C666.904,329.447 665.764,330.061 665.17,330.246C664.576,330.43 663.817,330.911 663.484,331.315C662.851,332.079 661.494,332.324 661.509,331.671" style="fill:rgb(212,175,55);fill-rule:nonzero;stroke:rgb(212,175,55);stroke-width:1px;"/>
                <path id="_9646" serif:id="96" d="M561.582,428.8C561.694,428.009 562.466,427.218 563.904,426.424C565.09,425.769 566.149,425.323 566.257,425.432C566.366,425.541 565.321,426.611 563.934,427.809C561.646,429.785 561.428,429.877 561.582,428.8" style="fill:rgb(212,175,55);fill-rule:nonzero;stroke:rgb(212,175,55);stroke-width:1px;"/>
                <path id="_9647" serif:id="96" d="M478.502,496.692C478.504,496.29 484.188,491.551 484.668,491.551C484.825,491.551 485.517,490.986 486.204,490.297C487.429,489.068 488.747,488.594 488.416,489.501C488.181,490.148 479.545,497.068 478.973,497.068C478.712,497.068 478.501,496.899 478.502,496.692" style="fill:rgb(212,175,55);fill-rule:nonzero;stroke:rgb(212,175,55);stroke-width:1px;"/>
                <path id="_9648" serif:id="96" d="M464.85,483.208C464.538,482.894 470.558,479.011 471.356,479.011C471.582,479.011 472.596,478.447 473.608,477.757C475.716,476.32 476.5,476.184 476.5,477.256C476.5,477.669 476.305,478.008 476.065,478.008C475.827,478.008 474.533,478.885 473.19,479.956C469.751,482.702 465.858,484.22 464.85,483.208" style="fill:rgb(212,175,55);fill-rule:nonzero;stroke:rgb(212,175,55);stroke-width:1px;"/>
                <path id="_9649" serif:id="96" d="M777,417.844C777,417.192 780.455,414.595 780.826,414.968C781.229,415.372 778.415,418.32 777.626,418.32C777.282,418.32 777,418.105 777,417.844" style="fill:rgb(212,175,55);fill-rule:nonzero;stroke:rgb(212,175,55);stroke-width:1px;"/>
                <path id="_9650" serif:id="96" d="M613.012,365.919C612.19,364.925 612.797,364.329 615.151,363.816C616.061,363.618 617.976,361.954 620.617,359.065C622.852,356.62 624.979,354.619 625.341,354.619C626.115,354.619 626.201,355.773 625.519,357.008C625.255,357.487 624.474,359.128 623.784,360.655C621.889,364.848 620.126,366.297 616.606,366.552C614.325,366.717 613.562,366.583 613.012,365.919" style="fill:rgb(212,175,55);fill-rule:nonzero;stroke:rgb(212,175,55);stroke-width:1px;"/>
                <path id="_9651" serif:id="96" d="M515.789,438.949C515.495,438.471 522.255,432.364 523.077,432.364C523.944,432.364 523.359,433.097 519.937,436.292C516.492,439.508 516.235,439.672 515.789,438.949" style="fill:rgb(212,175,55);fill-rule:nonzero;stroke:rgb(212,175,55);stroke-width:1px;"/>
                <path id="_9652" serif:id="96" d="M458.5,510.628C458.5,509.984 460.495,508.934 460.917,509.357C461.099,509.54 460.812,510.01 460.279,510.401C459.149,511.229 458.5,511.312 458.5,510.628" style="fill:rgb(212,175,55);fill-rule:nonzero;stroke:rgb(212,175,55);stroke-width:1px;"/>
                <path id="_9653" serif:id="96" d="M435,250.317C435,249.619 438.311,244.071 439.755,242.35C440.44,241.533 441,240.63 441,240.343C441,240.055 442.566,237.944 444.481,235.65C449.641,229.468 450.5,228.371 450.5,227.961C450.5,227.756 451.231,226.735 452.125,225.691C453.019,224.647 454.125,223.265 454.582,222.621C455.34,221.553 455.445,221.528 455.767,222.343C456.007,222.952 455.543,224.072 454.312,225.854C453.318,227.293 451.322,230.187 449.877,232.284C448.433,234.382 445.553,238.219 443.478,240.811C441.402,243.403 438.825,246.709 437.75,248.158C435.889,250.664 435,251.362 435,250.317" style="fill:rgb(212,175,55);fill-rule:nonzero;stroke:rgb(212,175,55);stroke-width:1px;"/>
                <path id="_9654" serif:id="96" d="M105.811,444.502C105.675,444.281 105.301,442.585 104.98,440.733C104.385,437.307 104.612,434.872 105.525,434.872C106.382,434.872 106.629,436.286 106.06,437.924C105.744,438.834 105.695,439.831 105.943,440.314C106.664,441.718 107.087,444.903 106.552,444.903C106.281,444.903 105.948,444.723 105.811,444.502" style="fill:rgb(212,175,55);fill-rule:nonzero;stroke:rgb(212,175,55);stroke-width:1px;"/>
                <path id="_9655" serif:id="96" d="M402.214,270.189C401.837,269.204 403.818,266.57 409.005,261.159C411.34,258.724 413.413,256.292 413.613,255.756C414.135,254.353 415.298,254.074 417.535,254.815C419.281,255.394 419.606,255.365 420.498,254.555C421.372,253.762 421.5,253.747 421.5,254.448C421.5,255.218 420.88,255.661 417,257.663C416.038,258.159 415.025,258.823 414.75,259.137C414.475,259.451 413.061,260.749 411.608,262.022C410.154,263.294 407.714,265.745 406.185,267.469C403.094,270.955 402.629,271.274 402.214,270.189" style="fill:rgb(212,175,55);fill-rule:nonzero;stroke:rgb(212,175,55);stroke-width:1px;"/>
                <path id="_9656" serif:id="96" d="M318.623,271.238C319.007,270.082 327.933,262.816 328.279,263.377C328.729,264.109 325.938,266.94 322.101,269.641C318.738,272.009 318.3,272.21 318.623,271.238" style="fill:rgb(212,175,55);fill-rule:nonzero;stroke:rgb(212,175,55);stroke-width:1px;"/>
                <path id="_9657" serif:id="96" d="M342.519,338.678C342.49,337.674 348.966,330.191 360.785,317.577C365.281,312.779 372.227,304.756 376.486,299.445C377.702,297.927 380.059,295.175 381.724,293.327C385.435,289.208 387.627,286.569 389.543,283.916C390.409,282.717 391.413,281.889 392.003,281.889C393.38,281.889 393.253,282.568 391.5,284.571C390.675,285.514 390,286.523 390,286.814C390,287.105 387.768,289.671 385.04,292.516C382.312,295.361 376.635,301.752 372.425,306.718C368.214,311.683 361.728,318.946 358.01,322.856C354.292,326.766 349.29,332.071 346.894,334.643C344.498,337.216 342.529,339.031 342.519,338.678" style="fill:rgb(212,175,55);fill-rule:nonzero;stroke:rgb(212,175,55);stroke-width:1px;"/>
                <path id="_9658" serif:id="96" d="M138.5,439.77C138.5,439.413 139.586,438.109 140.913,436.871C142.241,435.634 146.231,431.913 149.78,428.602C159.19,419.826 184.76,394.148 185.159,393.073C185.541,392.046 186.678,392.184 186.882,393.282C187.024,394.05 168.541,412.708 157.38,423.063C153.601,426.568 150.052,430.082 149.49,430.873C148.12,432.803 138.5,440.59 138.5,439.77" style="fill:rgb(212,175,55);fill-rule:nonzero;stroke:rgb(212,175,55);stroke-width:1px;"/>
                <path id="_9659" serif:id="96" d="M204,375.787C204,375.178 209.067,369.94 210.641,368.924C213.524,367.061 212.554,368.829 208.724,372.416C204.892,376.005 204,376.642 204,375.787" style="fill:rgb(212,175,55);fill-rule:nonzero;stroke:rgb(212,175,55);stroke-width:1px;"/>
                <path id="_9660" serif:id="96" d="M394.5,278.85C394.5,277.786 400.865,270.552 401.363,271.051C401.902,271.592 400.817,273.341 398.127,276.264C395.301,279.336 394.5,279.907 394.5,278.85" style="fill:rgb(212,175,55);fill-rule:nonzero;stroke:rgb(212,175,55);stroke-width:1px;"/>
                <path id="_9661" serif:id="96" d="M455.5,149.586C455.5,149.023 458.026,147.825 458.406,148.207C458.559,148.36 458.473,148.682 458.216,148.922C457.486,149.606 455.5,150.091 455.5,149.586" style="fill:rgb(212,175,55);fill-rule:nonzero;stroke:rgb(212,175,55);stroke-width:1px;"/>
                <path id="_9662" serif:id="96" d="M285.5,300.052C285.5,299.345 292.586,292.937 293.375,292.93C294.628,292.919 293.942,293.94 291.375,295.909C289.931,297.016 288.019,298.519 287.125,299.249C286.231,299.979 285.5,300.34 285.5,300.052" style="fill:rgb(212,175,55);fill-rule:nonzero;stroke:rgb(212,175,55);stroke-width:1px;"/>
                <path id="_9663" serif:id="96" d="M469.516,177.936C469.534,177.222 470.699,175.554 471.18,175.554C471.734,175.554 471.527,177.332 470.9,177.961C470.123,178.741 469.496,178.73 469.516,177.936" style="fill:rgb(212,175,55);fill-rule:nonzero;stroke:rgb(212,175,55);stroke-width:1px;"/>
                <path id="_9664" serif:id="96" d="M107.5,431.345C107.5,431.061 107.781,430.756 108.125,430.669C108.469,430.581 109.481,430.269 110.375,429.975C112.442,429.296 112.427,429.509 110.316,430.818C108.47,431.963 107.5,432.144 107.5,431.345" style="fill:rgb(212,175,55);fill-rule:nonzero;stroke:rgb(212,175,55);stroke-width:1px;"/>
                <path id="_9665" serif:id="96" d="M207.5,346.191C207.5,345.636 223.682,330.459 233.484,321.822C237.205,318.543 243.246,313.126 246.908,309.784C255.822,301.649 259.755,298.159 266,292.837C280.225,280.716 283.451,277.904 286.236,275.198C287.894,273.587 290.656,271.262 292.375,270.031C294.094,268.801 295.5,267.593 295.5,267.347C295.5,267.101 297.581,265.216 300.125,263.159C302.669,261.101 305.65,258.631 306.75,257.669C312.455,252.681 317.132,248.725 320.5,246.036C322.562,244.389 326.387,241.101 329,238.727C333.274,234.844 336.438,232.264 341.146,228.821C346.476,224.923 355.221,217.979 358,215.438C358.962,214.557 360.611,213.346 361.665,212.746C362.719,212.145 364.631,210.766 365.915,209.681C373.706,203.099 382.609,196.289 389.545,191.604C391.791,190.087 394.894,187.837 396.44,186.603C397.986,185.369 401.613,182.772 404.5,180.831C407.387,178.891 410.425,176.833 411.25,176.257C412.075,175.681 414.212,174.234 416,173.039C417.788,171.845 421.613,169.261 424.5,167.297C430.024,163.538 436.575,159.503 437.151,159.503C437.338,159.503 438.543,158.699 439.827,157.715C442.427,155.724 447.005,153.255 446.991,153.852C446.977,154.451 443.512,157.173 440.75,158.754C439.375,159.541 437.012,161.012 435.5,162.023C433.988,163.034 430.163,165.555 427,167.625C423.837,169.695 418.551,173.172 415.253,175.352C411.955,177.532 409.031,179.429 408.753,179.566C407.363,180.259 403.192,183.144 398.25,186.83C395.225,189.087 391.175,191.978 389.25,193.254C387.325,194.531 384.175,196.83 382.25,198.364C380.325,199.899 377.76,201.883 376.55,202.774C374.414,204.347 369.014,208.57 359.75,215.916C357.275,217.878 354.462,220.029 353.5,220.696C352.538,221.363 350.03,223.391 347.928,225.204C345.826,227.018 342.339,229.84 340.178,231.477C338.017,233.113 333.325,236.955 329.75,240.015C326.175,243.075 321,247.361 318.25,249.541C315.5,251.721 310.663,255.917 307.5,258.866C301.673,264.299 300.402,265.396 286.204,277.236C271.918,289.149 268.39,292.149 266.808,293.727C262.818,297.71 249.149,310.315 243.75,314.991C236.005,321.698 230.008,327.116 223.761,333.051C217.166,339.315 209.089,346.301 208.204,346.505C207.816,346.594 207.5,346.453 207.5,346.191" style="fill:rgb(212,175,55);fill-rule:nonzero;stroke:rgb(212,175,55);stroke-width:1px;"/>
                <path id="_9666" serif:id="96" d="M457,219.677C457,218.701 458.252,217.772 458.812,218.334C459.188,218.711 458.07,220.696 457.483,220.696C457.217,220.696 457,220.238 457,219.677" style="fill:rgb(212,175,55);fill-rule:nonzero;stroke:rgb(212,175,55);stroke-width:1px;"/>
                <path id="_9667" serif:id="96" d="M189.5,389.97C189.5,389.55 190.062,388.949 190.75,388.635C191.438,388.32 192,387.842 192,387.573C192,386.769 201.602,377.691 202.453,377.691C202.883,377.691 200.317,380.626 196.75,384.212C193.183,387.798 190.092,390.733 189.882,390.733C189.672,390.733 189.5,390.39 189.5,389.97" style="fill:rgb(212,175,55);fill-rule:nonzero;stroke:rgb(212,175,55);stroke-width:1px;"/>
                <path id="_9668" serif:id="96" d="M117.5,426.6C117.5,426.477 119.244,425.197 121.375,423.756C127.344,419.723 135.9,412.901 139.5,409.306C141.287,407.522 145.338,403.822 148.5,401.085C151.662,398.348 161.225,389.386 169.75,381.17C178.275,372.955 187.125,364.623 189.417,362.656C191.709,360.688 194.942,357.624 196.6,355.846C199.498,352.738 201,351.862 201,353.282C201,354.015 198.488,356.461 185.727,368.156C181.065,372.429 174.759,378.297 171.714,381.197C140.003,411.4 132.004,418.386 122.307,424.35C119.993,425.773 117.5,426.94 117.5,426.6" style="fill:rgb(212,175,55);fill-rule:nonzero;stroke:rgb(212,175,55);stroke-width:1px;"/>
                <path id="_9669" serif:id="96" d="M462.742,212.156C462.353,211.524 464.99,208.243 465.928,208.193C466.776,208.148 466.38,209.269 464.872,211.189C463.647,212.747 463.224,212.939 462.742,212.156" style="fill:rgb(212,175,55);fill-rule:nonzero;stroke:rgb(212,175,55);stroke-width:1px;"/>
                <path id="_9670" serif:id="96" d="M424,246.01C424,244.163 426.2,240.038 429.43,235.832C430.981,233.812 432.738,231.442 433.336,230.566C433.933,229.69 435.36,227.844 436.506,226.464C439.497,222.865 446.029,213.831 447.642,211.062C448.398,209.764 450.435,206.829 452.17,204.542C455.49,200.16 459.791,193.878 461.417,191.037C464.461,185.716 467.142,181.573 467.542,181.573C468.497,181.573 467.993,182.579 463.772,189.097C462.074,191.717 459.825,195.216 458.772,196.871C457.721,198.526 456.559,200.219 456.192,200.633C454.254,202.82 452.5,205.068 452.5,205.365C452.5,205.55 451.224,207.665 449.663,210.064C446.332,215.186 444.967,218.261 445.889,218.569C446.71,218.844 446.635,220.224 445.734,221.419C445.33,221.955 445,222.693 445,223.06C445,224.131 442.433,227.718 441.668,227.718C441.284,227.718 440.817,228.114 440.633,228.596C440.012,230.221 437.592,233.472 435.501,235.493C434.359,236.596 433.13,238.198 432.769,239.053C432.409,239.908 431.301,241.111 430.308,241.727C429.313,242.343 428.5,243.041 428.5,243.277C428.5,243.791 424.911,247.27 424.375,247.276C424.169,247.278 424,246.708 424,246.01" style="fill:rgb(212,175,55);fill-rule:nonzero;stroke:rgb(212,175,55);stroke-width:1px;"/>
                <path id="_9671" serif:id="96" d="M490.511,174.669C490.505,174.319 491.209,172.773 492.077,171.232C492.943,169.691 493.933,167.614 494.274,166.618C494.934,164.692 496,163.866 496,165.281C496,166.964 490.539,176.302 490.511,174.669" style="fill:rgb(212,175,55);fill-rule:nonzero;stroke:rgb(212,175,55);stroke-width:1px;"/>
                <path id="_9672" serif:id="96" d="M219,361.985C219,361.623 219.706,360.664 220.568,359.854L222.136,358.381L221.785,359.854C221.309,361.852 219,363.619 219,361.985" style="fill:rgb(212,175,55);fill-rule:nonzero;stroke:rgb(212,175,55);stroke-width:1px;"/>
                <path id="_9673" serif:id="96" d="M459.5,147.571C459.5,147.093 466.357,143.954 467.4,143.954C467.659,143.954 469.279,143.503 471,142.951C474.382,141.867 476.748,141.641 476.25,142.449C476.08,142.725 475.418,142.951 474.778,142.951C473.141,142.951 468.861,144.274 464.75,146.05C460.307,147.971 459.5,148.205 459.5,147.571" style="fill:rgb(212,175,55);fill-rule:nonzero;stroke:rgb(212,175,55);stroke-width:1px;"/>
            </g>
            <path id="_9674" serif:id="96" d="M1128.541,483.984C1128.48,481.321 1130.362,475.922 1131.804,474.622C1132.493,474.002 1133.524,473.494 1134.095,473.494C1135.056,473.494 1135.034,473.573 1133.807,474.541C1132.181,475.825 1131.256,477.571 1129.745,482.21C1128.71,485.386 1128.576,485.583 1128.541,483.984" style="fill:rgb(212,175,55);fill-rule:nonzero;stroke:rgb(212,175,55);stroke-width:1px;"/>
            <path id="_9675" serif:id="96" d="M1147,500.859C1147,500.462 1147.226,499.996 1147.504,499.825C1148.678,499.096 1149.747,496.077 1149.99,492.805C1150.133,490.873 1150.475,489.294 1150.75,489.294C1151.658,489.294 1151.629,495.86 1150.714,497.676C1149.215,500.651 1147,502.549 1147,500.859" style="fill:rgb(212,175,55);fill-rule:nonzero;stroke:rgb(212,175,55);stroke-width:1px;"/>
        </g>
    </g>
</svg>
